<mxfile host="app.diagrams.net" modified="2025-09-02T00:00:00Z" agent="cfbfantasy-app" version="24.7.2" type="device"><diagram id="repo-map" name="Repo Map"><mxGraphModel dx="1392" dy="850" grid="1" gridSize="10" guides="1" tooltips="1" connect="1" arrows="1" fold="1" page="1" pageScale="1" pageWidth="1920" pageHeight="1080" math="0" shadow="0"><root><mxCell id="0"/><mxCell id="1" parent="0"/><mxCell id="app" value="app/ (Next.js)" style="rounded=1;fillColor=#FAD7C8;strokeColor=#C26D3C;fontColor=#5B2E0F;whiteSpace=wrap;html=1;" vertex="1" parent="1"><mxGeometry x="60" y="60" width="220" height="60" as="geometry"/></mxCell><mxCell id="components" value="components/" style="rounded=1;fillColor=#F6E6C8;strokeColor=#C26D3C;fontColor=#5B2E0F;whiteSpace=wrap;html=1;" vertex="1" parent="1"><mxGeometry x="320" y="60" width="220" height="60" as="geometry"/></mxCell><mxCell id="lib" value="lib/" style="rounded=1;fillColor=#E7F4EE;strokeColor=#2F7F5F;fontColor=#0F5132;whiteSpace=wrap;html=1;" vertex="1" parent="1"><mxGeometry x="580" y="60" width="220" height="60" as="geometry"/></mxCell><mxCell id="docs" value="docs/" style="rounded=1;fillColor=#E1E8FF;strokeColor=#3949AB;fontColor=#1E3A8A;whiteSpace=wrap;html=1;" vertex="1" parent="1"><mxGeometry x="840" y="60" width="220" height="60" as="geometry"/></mxCell><mxCell id="schema" value="schema/ (SSOT)" style="rounded=1;fillColor=#FFF1C4;strokeColor=#C59E0B;fontColor=#92400E;whiteSpace=wrap;html=1;" vertex="1" parent="1"><mxGeometry x="1100" y="60" width="220" height="60" as="geometry"/></mxCell><mxCell id="functions" value="functions/ (Appwrite)" style="rounded=1;fillColor=#FFE0E0;strokeColor=#DC2626;fontColor=#7F1D1D;whiteSpace=wrap;html=1;" vertex="1" parent="1"><mxGeometry x="1360" y="60" width="240" height="60" as="geometry"/></mxCell><mxCell id="edges1" value="" style="endArrow=block;endFill=1;strokeColor=#94A3B8;" edge="1" source="schema" target="lib" parent="1"><mxGeometry relative="1" as="geometry"/></mxCell><mxCell id="edges2" value="" style="endArrow=block;endFill=1;strokeColor=#94A3B8;" edge="1" source="schema" target="docs" parent="1"><mxGeometry relative="1" as="geometry"/></mxCell><mxCell id="edges3" value="" style="endArrow=block;endFill=1;strokeColor=#94A3B8;" edge="1" source="lib" target="app" parent="1"><mxGeometry relative="1" as="geometry"/></mxCell><mxCell id="edges4" value="" style="endArrow=block;endFill=1;strokeColor=#94A3B8;" edge="1" source="lib" target="functions" parent="1"><mxGeometry relative="1" as="geometry"/></mxCell></root></mxGraphModel></diagram></mxfile>